<?xml version="1.0" encoding="UTF-8"?>
<svg id="b" data-name="Layer 2" xmlns="http://www.w3.org/2000/svg" viewBox="0 0 150.53 201.67">
  <g id="c" data-name="Layer 1">
    <g id="d" data-name="ix-symbol-poison">
      <path d="M149.52,1c-.03,7.29.1,16.36-.1,23.28-.15,2.08-.26,4.48-1.95,5.84-1.38,1.08-3.79,1.37-7.28,1.74-8.04.81-21.42,2.15-28.49,2.85-8.97,1.13-17.57.03-26.8-.41-4.13-.25-8.25-.48-12.29-.74-8.05-.33-15.28-2.3-23.54-3.95-6.58-1.36-14.38-3.01-20.66-4.3-4.97-1.08-7.57-1.06-8.67,3.28-1.39,5.7-2.4,14.53-3.47,20.97" fill="none" stroke="#fff" stroke-linecap="round" stroke-linejoin="round" stroke-width="2"/>
      <path d="M104.34,35.45v45.74c.51,14.71.95,32.32,1.49,47.17.74,14.61,2.78,30.83,3.96,45.65,1.32,11.97.96,24.15-13.76,25.88-8.77,1.3-18.49.54-27.39.74-10.2-.46-23.56,1.94-31.78-5.36-4.34-4.4-4.43-13.65-4.32-20.98,0-7.5.06-16.58.08-23.08v-28.52" fill="none" stroke="#fff" stroke-linecap="round" stroke-linejoin="round" stroke-width="2"/>
      <line x1="59.16" y1="121.56" x2="60.6" y2="200.62" fill="none" stroke="#fff" stroke-linecap="round" stroke-linejoin="round" stroke-width="2"/>
      <ellipse cx="41.94" cy="111.08" rx="40.94" ry="38.72" fill="none" stroke="#fff" stroke-linecap="round" stroke-linejoin="round" stroke-width="2"/>
      <circle cx="46.71" cy="103.52" r="9.95" fill="none" stroke="#fff" stroke-linecap="round" stroke-linejoin="round" stroke-width="2"/>
      <line x1="89.38" y1="149.8" x2="109.41" y2="169.52" fill="none" stroke="#fff" stroke-linecap="round" stroke-linejoin="round" stroke-width="2"/>
    </g>
  </g>
</svg>