<svg xmlns="http://www.w3.org/2000/svg" viewBox="0 0 104.78 104.78">
  <g>
    <g>
      <circle cx="52.39" cy="52.39" r="51.39" fill="none" stroke="#f42727" stroke-miterlimit="10" stroke-width="2"/>
      <path d="M38.3,68.2c2.11-1.3,3.1-4.88,4.24-7.04,1.49-3.65,3.07-7.4,4.13-11.02,2.13-9.91,3.57-6.74,5.87.33,1.35,5.01,2.22,10.45,5.21,14.84,1.36,1.95,3.01,5.03,5.4,6.06,2.53.56,3.07-1.96,2.22-4.08-.5-2.02-2.8-3.78-4.02-5.66-1.44-3.52-2.87-8.14-3.98-11.9-.9-3.21-1.4-6.11-2.59-9.1-1.36-3.35-2.09-6.06-4.98-8.37-2.48-.79-4.05,4.94-5.08,6.8-2.52,4.55-1.86,9.93-3.35,14.72-.85,3.08-1.08,5-2.76,7.5-1.32,1.85-2.12,5.15-.44,6.89l.14.02Z" fill="#f42727"/>
      <path d="M30.53,50.12c4.98-1.12,8.77,1.35,14.05,1.35,4.47.37,8.73,1.07,13.22.89,3.26.55,6.84,1.24,10.02.43,1.25-.28,3.52-.21,3.4,1.46-.27,2.13-4.36,3.85-6.4,3.86-.94-.04-1.88-.33-2.75-.66-1.47-.58-4.14-.87-6.17-1.22-2.59-.56-4.71-.21-7.39-.61-4.32-.74-8.32-1.03-12.64-1.7-1.84-.07-4.15.44-5.75-.75-1.09-.76-.76-2.45.28-3l.14-.06Z" fill="#f42727"/>
    </g>
  </g>
</svg>