<?xml version="1.0" encoding="UTF-8"?>
<svg id="b" data-name="Layer 2" xmlns="http://www.w3.org/2000/svg" viewBox="0 0 107.11 104.3">
  <g id="c" data-name="Layer 1">
    <path d="M107.11,83.5c0-1.7-1.4-3.1-3.1-3.1l-17.6-.2h-.2c-1.8.2-3,1.5-3,3.1,0,.8.3,1.6.9,2.2s1.4.9,2.2.9l10.8.1c-3.3,5.9-7.4,8.8-12.3,8.8-3.3,0-5.9-.9-7.7-2.8-3.3-3.4-3.2-9-3.1-9.7l.4-70.3c0-.4-.1-.8-.2-1.2-.2-.4-4.3-10.8-16.2-11h-.5c-6.9,0-11.2,3.6-13.3,6.1-2.2-2.7-6.4-6.1-13.5-6.4h-.9c-6.9,0-11.2,3.3-13.6,5.8C14.11,3.4,10.01.3,3.21,0h-.1C1.41,0,0,1.3,0,3c-.1,1.7,1.3,3.2,3,3.3,6.4.3,8.9,3.9,9.7,5.3l.6,70.2c0,1.7,1.4,3.1,3.2,3.1,1.7,0,3.1-1.4,3.1-3.1l.1-70.1c1.1-1.8,4-5.4,10-5.4h.8c6.7.3,9.3,4.3,10.1,5.8l.2,69.5c0,1.7,1.4,3.1,3.1,3.1s3.1-1.4,3.1-3.1l.8-69.4c.8-1.6,3.6-5.7,9.7-5.7h.3c6.4.1,9.4,4.8,10.2,6.6l-.4,69.4c0,.9-.3,8.8,4.8,14.2,3,3.2,7.1,4.8,12.3,4.8,4.6,0,10.8-1.7,16.1-9.4l.1,9.1c0,1.7,1.4,3.1,3.1,3.1h0c1.7,0,3.1-1.5,3.1-3.2v-17.6Z"/>
  </g>
</svg>